<svg id="fd15ffbb-ca02-426d-99b5-ab936d364d1f" data-name="圖層 1" xmlns="http://www.w3.org/2000/svg" viewBox="0 0 188 84"><rect x="119.08" y="63.16" width="8.66" height="8.66" transform="translate(-11.58 107.03) rotate(-45)" style="fill:#f08a00"/><path d="M86.68,32.33a11.43,11.43,0,1,1-1.79-16.61L88.47,11A17.32,17.32,0,1,0,91.21,36.1Z" style="fill:#f08a00"/><path d="M80,33.16c.58-.46,2.64-2.45,2.64-2.45,5.17-10.34,10.47-21,19.46-29.19l-.34-1C96.16,4.12,87.56,13.33,80.53,25.05c0,0-.91-1.71-1.59-2.95s-1.85-3.15-3.7-3.27h-.1c-1.85,0-4.58,3.58-4.58,3.58a6.18,6.18,0,0,1,3.32,2.42c.72,1,3.39,6.79,4.07,8.34a.75.75,0,0,0,.66.4,2.51,2.51,0,0,0,1.34-.4" style="fill:#8dbe3d"/><path d="M7.76,32c.74,3.21,3.07,4.54,6.73,4.54s5.13-1.35,5.13-3.64c0-2.59-1.59-3.63-7.09-4.89-9.27-2.16-11.42-5.57-11.42-10,0-6,4.46-9.87,12.41-9.87,9,0,12.56,4.77,13.05,9.72H18.8c-.3-1.88-1.29-4.06-5.47-4.05C10.63,13.75,9,14.83,9,17s1.33,3,6.61,4.25c9.7,2.26,11.9,5.84,11.91,10.6,0,6.21-4.71,10.36-13.62,10.37C5.42,42.26.82,38.19,0,32Z" style="fill:#0e6066"/><polygon points="55.06 27.66 39.29 27.67 39.3 35.47 56.7 35.47 55.8 41.76 31.82 41.77 31.81 8.54 55.73 8.54 55.73 14.83 39.29 14.83 39.29 21.37 55.06 21.37 55.06 27.66" style="fill:#0d5a60"/><path d="M105.28,8.52V28.28c0,6.09,3.09,7.93,6.54,7.93,4,0,6.35-2.22,6.35-7.94V8.51h7.72V27.89c0,11.47-6.78,14.33-14.16,14.33-7.61,0-14.16-2.95-14.16-14.22V8.52Z" style="fill:#0d5a60"/><path d="M150.5,41.73h8.56l-7.51-13.27c3.52-1.62,5.87-4.72,5.87-9.6,0-8-5.82-10.4-12.89-10.4H132.48V41.73h7.66V29.84h4.06Zm-10.36-18V14.52h3.78c3.91,0,6,1.08,6,4.33s-2.1,4.91-6,4.91Z" style="fill:#0d5a60"/><polygon points="186.36 27.61 170.59 27.62 170.59 35.43 188 35.42 187.1 41.71 163.12 41.72 163.1 8.5 187.03 8.49 187.03 14.78 170.58 14.79 170.59 21.33 186.35 21.32 186.36 27.61" style="fill:#0d5a60"/><path d="M11.67,83.21.34,52.33H4.13L9.76,68c1.63,4.58,3.34,9.34,4,12.09h.09c.65-2.45,2.52-7.44,4.17-11.94l5.84-15.8h3.66L15.84,83.2Z" style="fill:#0d5a60"/><polygon points="49.41 68.51 33.92 68.52 33.93 80.12 50.92 80.11 50.45 83.19 30.45 83.2 30.44 52.32 50.16 52.31 50.16 55.39 33.92 55.4 33.92 65.44 49.41 65.43 49.41 68.51" style="fill:#0d5a60"/><polygon points="94.01 55.38 83.91 55.38 83.91 52.3 107.7 52.29 107.7 55.37 97.58 55.37 97.58 83.17 94.02 83.18 94.01 55.38" style="fill:#0d5a60"/><path d="M159.85,83.15h4l-8-13.67c4.33-1,7.15-3.81,7.15-8.65,0-6.32-4.41-8.57-10.67-8.57h-9.49v30.9h3.54V69.85h5.8ZM146.4,67V55.15h5.38c5,0,7.69,1.5,7.69,5.69S156.74,67,151.79,67Z" style="fill:#0d5a60"/><path d="M169.07,74.65c.86,3.84,3.46,6,8.14,6,5.09,0,7.08-2.44,7.07-5.5,0-3.23-1.53-5.1-7.92-6.66-7-1.72-9.65-4.09-9.65-8.47s3.24-8.17,10-8.17c7.17,0,10.14,4.21,10.55,8.17h-3.6c-.61-2.93-2.48-5.23-7.1-5.23-4,0-6.2,1.83-6.2,4.93s1.84,4.27,7.35,5.61c8.76,2.15,10.23,5.59,10.23,9.47,0,4.84-3.56,8.75-11,8.75-7.75,0-10.92-4.32-11.54-8.87Z" style="fill:#0d5a60"/><path d="M123.19,83.53A15.82,15.82,0,1,1,139,67.71a15.84,15.84,0,0,1-15.81,15.82m0-28.58A12.76,12.76,0,1,0,136,67.71,12.77,12.77,0,0,0,123.19,55" style="fill:#0d5a60"/><path d="M79.14,75.57a12.76,12.76,0,1,1,0-15.72L81.54,58a15.82,15.82,0,1,0,0,19.48Z" style="fill:#0d5a60"/></svg>